<svg xmlns="http://www.w3.org/2000/svg" viewBox="0 0 500 500" width="100%" height="100%">
  <g transform="translate(250, 200)" fill="none" stroke="#b9bec1" stroke-linecap="square">
    <path d="M -40,-90 L -80,-50 L -80,50 L -40,90" stroke-width="16" opacity="0.9"/>
    <path d="M -70,-60 L -110,-20 L -110,20 L -70,60" stroke-width="10" opacity="0.5"/>
    <path d="M -100,-30 L -130,0 L -100,30" stroke-width="6" opacity="0.2"/>
    <path d="M 40,-90 L 80,-50 L 80,50 L 40,90" stroke-width="16" opacity="0.9"/>
    <path d="M 70,-60 L 110,-20 L 110,20 L 70,60" stroke-width="10" opacity="0.5"/>
    <path d="M 100,-30 L 130,0 L 100,30" stroke-width="6" opacity="0.2"/>
  </g>
  <path d="M112.3 405.0V368.9H117.7V399.6H148.3V405.0Z M162.6 405.0Q160.8 405.0 159.3 404.1Q157.8 403.3 157.0 401.8Q156.1 400.3 156.1 398.5V369.0H161.5V398.3Q161.5 398.9 161.9 399.2Q162.2 399.6 162.7 399.6H185.4Q185.9 399.6 186.3 399.2Q186.7 398.9 186.7 398.3V369.0H192.1V398.5Q192.1 400.3 191.2 401.8Q190.3 403.3 188.9 404.1Q187.4 405.0 185.6 405.0H162.6Z M216.1 405.0V374.4H200.8V369.0H236.8V374.4H221.5V405.0Z M245.6 405.0V369.0H251.0V384.3H277.0V369.0H282.4V405.0H277.0V389.7H251.0V405.0Z M293.0 405.0V369.0H298.4V405.0Z M308.9 405.0V369.0H341.9V374.4H314.3V384.3H336.5V389.7H314.3V399.6H341.9V405.0Z M381.6 405.0 370.3 391.6H377.4L387.9 404.0V405.0ZM352.1 405.0V369.1H381.6Q383.4 369.1 384.8 369.9Q386.3 370.8 387.2 372.3Q388.1 373.8 388.1 375.6V385.7Q388.1 387.4 387.2 388.9Q386.3 390.4 384.8 391.3Q383.4 392.2 381.6 392.2L357.5 392.2V405.0ZM358.7 386.7H381.4Q381.9 386.7 382.3 386.4Q382.7 386.0 382.7 385.5V375.7Q382.7 375.2 382.3 374.8Q381.9 374.5 381.4 374.5H358.7Q358.2 374.5 357.9 374.8Q357.5 375.2 357.5 375.7V385.5Q357.5 386.0 357.9 386.4Q358.2 386.7 358.7 386.7Z" fill="#c8cccd"/>
  <path d="M112.2 442.1Q111.4 442.1 110.6 441.7Q109.9 441.3 109.4 440.6L109.9 440.1Q110.3 440.7 110.9 441.0Q111.5 441.4 112.2 441.4Q114.3 441.4 114.3 438.9V432.2H110.4V431.5H115.1V438.9Q115.1 440.5 114.4 441.3Q113.6 442.1 112.2 442.1Z M125.9 442.1Q123.9 442.1 122.8 440.9Q121.7 439.8 121.7 437.6V431.5H122.5V437.5Q122.5 439.5 123.4 440.4Q124.3 441.4 125.9 441.4Q127.5 441.4 128.4 440.4Q129.3 439.5 129.3 437.5V431.5H130.1V437.6Q130.1 439.8 129.0 440.9Q127.9 442.1 125.9 442.1Z M141.3 442.1Q140.1 442.1 139.1 441.7Q138.1 441.3 137.4 440.6Q136.6 439.8 136.2 438.9Q135.8 437.9 135.8 436.8Q135.8 435.6 136.2 434.6Q136.6 433.7 137.4 432.9Q138.1 432.2 139.1 431.8Q140.1 431.4 141.3 431.4Q142.4 431.4 143.3 431.8Q144.3 432.1 145.0 432.9L144.5 433.4Q143.8 432.7 143.0 432.4Q142.2 432.1 141.3 432.1Q140.3 432.1 139.4 432.5Q138.6 432.8 137.9 433.5Q137.3 434.1 136.9 434.9Q136.6 435.8 136.6 436.8Q136.6 437.7 136.9 438.6Q137.3 439.4 137.9 440.0Q138.6 440.7 139.4 441.0Q140.3 441.4 141.3 441.4Q142.2 441.4 143.0 441.1Q143.8 440.8 144.5 440.1L145.0 440.6Q144.3 441.3 143.3 441.7Q142.4 442.1 141.3 442.1Z M150.5 442.0V431.5H157.6V432.2H151.3V441.3H157.8V442.0ZM151.2 437.0V436.3H156.9V437.0Z M170.7 442.0V431.5H174.5Q175.8 431.5 176.7 431.9Q177.7 432.3 178.2 433.1Q178.7 433.9 178.7 435.0Q178.7 436.1 178.2 436.9Q177.7 437.7 176.7 438.1Q175.8 438.6 174.5 438.6H171.1L171.5 438.2V442.0ZM171.5 438.2 171.1 437.9H174.5Q176.2 437.9 177.1 437.1Q177.9 436.4 177.9 435.0Q177.9 433.7 177.1 432.9Q176.2 432.2 174.5 432.2H171.1L171.5 431.8Z M184.6 442.0V431.5H188.3Q190.3 431.5 191.4 432.4Q192.6 433.4 192.6 435.0Q192.6 436.1 192.1 436.9Q191.6 437.7 190.6 438.1Q189.7 438.6 188.3 438.6H185.0L185.3 438.2V442.0ZM191.9 442.0 189.1 438.2H190.0L192.7 442.0ZM185.3 438.2 185.0 437.9H188.3Q190.0 437.9 190.9 437.1Q191.8 436.4 191.8 435.0Q191.8 433.7 190.9 432.9Q190.0 432.2 188.3 432.2H185.0L185.3 431.8Z M203.0 442.1Q201.8 442.1 200.8 441.7Q199.8 441.3 199.1 440.6Q198.3 439.8 197.9 438.9Q197.5 437.9 197.5 436.8Q197.5 435.6 197.9 434.6Q198.3 433.7 199.1 432.9Q199.8 432.2 200.8 431.8Q201.8 431.4 203.0 431.4Q204.1 431.4 205.1 431.8Q206.1 432.2 206.9 432.9Q207.6 433.7 208.0 434.6Q208.4 435.6 208.4 436.8Q208.4 437.9 208.0 438.9Q207.6 439.8 206.9 440.6Q206.1 441.3 205.1 441.7Q204.1 442.1 203.0 442.1ZM203.0 441.4Q204.0 441.4 204.8 441.0Q205.7 440.7 206.3 440.1Q206.9 439.4 207.3 438.6Q207.7 437.7 207.7 436.7Q207.7 435.8 207.3 434.9Q207.0 434.1 206.3 433.4Q205.7 432.8 204.8 432.5Q204.0 432.1 203.0 432.1Q202.0 432.1 201.1 432.5Q200.3 432.8 199.6 433.4Q199.0 434.1 198.6 434.9Q198.3 435.8 198.3 436.7Q198.3 437.7 198.6 438.6Q199.0 439.4 199.6 440.1Q200.3 440.7 201.1 441.0Q202.0 441.4 203.0 441.4Z M215.2 442.1Q214.3 442.1 213.6 441.7Q212.8 441.3 212.4 440.6L212.8 440.1Q213.3 440.7 213.9 441.0Q214.5 441.4 215.2 441.4Q217.3 441.4 217.3 438.9V432.2H213.4V431.5H218.0V438.9Q218.0 440.5 217.3 441.3Q216.6 442.1 215.2 442.1Z M224.7 442.0V431.5H231.7V432.2H225.5V441.3H232.0V442.0ZM225.4 437.0V436.3H231.1V437.0Z M242.3 442.1Q241.2 442.1 240.2 441.7Q239.2 441.3 238.4 440.6Q237.7 439.8 237.3 438.9Q236.9 437.9 236.9 436.8Q236.9 435.6 237.3 434.6Q237.7 433.7 238.4 432.9Q239.2 432.2 240.2 431.8Q241.2 431.4 242.3 431.4Q243.5 431.4 244.4 431.8Q245.4 432.1 246.1 432.9L245.6 433.4Q244.9 432.7 244.1 432.4Q243.3 432.1 242.4 432.1Q241.4 432.1 240.5 432.5Q239.6 432.8 239.0 433.5Q238.4 434.1 238.0 434.9Q237.7 435.8 237.7 436.8Q237.7 437.7 238.0 438.6Q238.4 439.4 239.0 440.0Q239.6 440.7 240.5 441.0Q241.4 441.4 242.4 441.4Q243.3 441.4 244.1 441.1Q244.9 440.8 245.6 440.1L246.1 440.6Q245.4 441.3 244.4 441.7Q243.5 442.1 242.3 442.1Z M253.6 442.0V432.2H249.9V431.5H258.2V432.2H254.4V442.0Z M274.7 442.1Q273.5 442.1 272.5 441.7Q271.5 441.3 270.8 440.6Q270.0 439.8 269.6 438.9Q269.2 437.9 269.2 436.8Q269.2 435.6 269.6 434.6Q270.0 433.7 270.8 432.9Q271.5 432.2 272.5 431.8Q273.5 431.4 274.7 431.4Q275.8 431.4 276.8 431.8Q277.8 432.1 278.5 432.9L278.0 433.4Q277.3 432.7 276.5 432.4Q275.7 432.1 274.7 432.1Q273.7 432.1 272.8 432.5Q272.0 432.8 271.3 433.5Q270.7 434.1 270.3 434.9Q270.0 435.8 270.0 436.8Q270.0 437.7 270.3 438.6Q270.7 439.4 271.3 440.0Q272.0 440.7 272.8 441.0Q273.7 441.4 274.7 441.4Q275.7 441.4 276.5 441.1Q277.3 440.8 278.0 440.1L278.4 440.7Q277.7 441.4 276.8 441.7Q275.8 442.1 274.7 442.1ZM278.4 440.7 277.7 440.6V436.8H278.4Z M284.9 442.0V431.5H292.0V432.2H285.7V441.3H292.2V442.0ZM285.6 437.0V436.3H291.3V437.0Z M298.1 442.0V431.5H298.8L306.2 441.1H305.9V431.5H306.7V442.0H306.0L298.5 432.4H298.9V442.0Z M313.5 442.0V431.5H320.5V432.2H314.2V441.3H320.7V442.0ZM314.1 437.0V436.3H319.8V437.0Z M326.6 442.0V431.5H330.4Q332.4 431.5 333.5 432.4Q334.6 433.4 334.6 435.0Q334.6 436.1 334.1 436.9Q333.6 437.7 332.7 438.1Q331.7 438.6 330.4 438.6H327.1L327.4 438.2V442.0ZM333.9 442.0 331.2 438.2H332.1L334.8 442.0ZM327.4 438.2 327.1 437.9H330.4Q332.1 437.9 333.0 437.1Q333.9 436.4 333.9 435.0Q333.9 433.7 333.0 432.9Q332.1 432.2 330.4 432.2H327.1L327.4 431.8Z M338.8 442.0 343.6 431.5H344.4L349.2 442.0H348.4L343.9 432.0H344.2L339.6 442.0ZM340.6 439.1 340.8 438.4H347.1L347.4 439.1Z M356.3 442.0V432.2H352.5V431.5H360.8V432.2H357.1V442.0Z M370.3 442.1Q369.2 442.1 368.2 441.7Q367.2 441.3 366.4 440.6Q365.7 439.8 365.3 438.9Q364.9 437.9 364.9 436.8Q364.9 435.6 365.3 434.6Q365.7 433.7 366.4 432.9Q367.2 432.2 368.2 431.8Q369.2 431.4 370.3 431.4Q371.5 431.4 372.5 431.8Q373.5 432.2 374.2 432.9Q375.0 433.7 375.4 434.6Q375.8 435.6 375.8 436.8Q375.8 437.9 375.4 438.9Q375.0 439.8 374.2 440.6Q373.5 441.3 372.5 441.7Q371.5 442.1 370.3 442.1ZM370.3 441.4Q371.3 441.4 372.2 441.0Q373.0 440.7 373.7 440.1Q374.3 439.4 374.7 438.6Q375.0 437.7 375.0 436.7Q375.0 435.8 374.7 434.9Q374.3 434.1 373.7 433.4Q373.0 432.8 372.2 432.5Q371.3 432.1 370.3 432.1Q369.3 432.1 368.5 432.5Q367.6 432.8 367.0 433.4Q366.3 434.1 366.0 434.9Q365.6 435.8 365.6 436.7Q365.6 437.7 366.0 438.6Q366.3 439.4 367.0 440.1Q367.6 440.7 368.5 441.0Q369.3 441.4 370.3 441.4Z M381.6 442.0V431.5H385.4Q387.3 431.5 388.4 432.4Q389.6 433.4 389.6 435.0Q389.6 436.1 389.1 436.9Q388.6 437.7 387.6 438.1Q386.7 438.6 385.4 438.6H382.0L382.4 438.2V442.0ZM388.9 442.0 386.1 438.2H387.0L389.7 442.0ZM382.4 438.2 382.0 437.9H385.4Q387.0 437.9 387.9 437.1Q388.8 436.4 388.8 435.0Q388.8 433.7 387.9 432.9Q387.0 432.2 385.4 432.2H382.0L382.4 431.8Z" fill="#969ca0"/>
</svg>
